<svg width="52" height="52" viewBox="0 0 52 52" fill="none" xmlns="http://www.w3.org/2000/svg">
<rect x="0.5" y="0.5" width="51" height="51" rx="10.5" fill="white" stroke="#F1F1F1"/>
<path fill-rule="evenodd" clip-rule="evenodd" d="M40.7677 17.81C41.2785 17.2993 42.1065 17.2994 42.617 17.81C43.1277 18.3207 43.1277 19.1486 42.617 19.6595C40.3144 21.9622 36.5544 22.2366 33.3324 21.853C34.3669 30.5984 29.9555 34.2904 21.8531 33.3325C22.2374 36.5605 21.9618 40.3148 19.6596 42.617C19.1489 43.1277 18.3208 43.1277 17.8102 42.617C17.2996 42.1062 17.2996 41.2782 17.8102 40.7676C18.1567 40.4211 18.4325 40.006 18.6507 39.5469L12.4528 33.349C11.9992 33.5647 11.5824 33.8398 11.2324 34.1898C10.7216 34.7005 9.89353 34.7005 9.383 34.1898C8.87233 33.6791 8.87233 32.8511 9.383 32.3405C11.6859 30.0376 15.4417 29.763 18.6676 30.147C17.6333 21.4018 22.0445 17.7094 30.147 18.6677C29.7627 15.4396 30.0383 11.6852 32.3405 9.383C32.8513 8.87233 33.6793 8.87233 34.1899 9.383C34.7006 9.89372 34.7006 10.7217 34.1899 11.2323C33.8398 11.5824 33.5648 11.9992 33.3491 12.4527L39.5473 18.6508C40.0008 18.4351 40.4176 18.1601 40.7677 17.81ZM15.453 32.6504L19.3501 36.5475C19.4437 35.1818 19.3149 33.8255 19.1523 32.8563C17.9702 32.6624 16.6734 32.5687 15.453 32.6504ZM21.3767 30.6231C21.1824 29.4351 21.091 28.1381 21.1717 26.9314L25.0683 30.8279C23.852 30.9093 22.5581 30.8163 21.3767 30.6231ZM21.8702 23.9313L28.0684 30.1295C29.056 29.6598 29.683 29.0073 30.1295 28.0683L23.9313 21.8701C22.9438 22.3397 22.3167 22.9924 21.8702 23.9313ZM30.8282 25.0681L26.9317 21.1716C28.1479 21.0903 29.4415 21.1831 30.6232 21.3764C30.8176 22.5642 30.909 23.8614 30.8282 25.0681ZM32.6505 15.4527C32.5697 16.6596 32.6611 17.9563 32.8554 19.1444C34.0371 19.3377 35.331 19.4305 36.547 19.3492L32.6505 15.4527Z" fill="black"/>
</svg>
