<svg width="35" height="35" viewBox="0 0 35 35" fill="none" xmlns="http://www.w3.org/2000/svg">
<mask id="mask0_0_284" style="mask-type:luminance" maskUnits="userSpaceOnUse" x="0" y="0" width="35" height="35">
<path fill-rule="evenodd" clip-rule="evenodd" d="M0 0H35V35H0V0Z" fill="white"/>
</mask>
<g mask="url(#mask0_0_284)">
<path fill-rule="evenodd" clip-rule="evenodd" d="M31.5894 18.4129C31.4871 20.0528 31.1124 21.6411 30.4752 23.1332C29.8617 24.5677 29.0193 25.8848 27.9704 27.0482C25.8891 29.357 23.0835 30.9313 20.0714 31.4814C19.1881 31.6432 18.2969 31.7248 17.4221 31.7248C14.6535 31.7248 11.9621 30.9067 9.64002 29.3583C8.15971 28.3712 6.87526 27.1131 5.89637 25.7092C7.10291 26.254 8.43809 26.6524 10.0906 26.9607C11.6111 27.2443 13.1706 27.3882 14.7248 27.3882C15.019 27.3882 15.3172 27.3836 15.6121 27.373C19.2527 27.2477 22.3314 26.5053 25.0236 25.1033C26.2393 24.4702 27.2731 23.6688 28.0976 22.7216C28.2527 22.5426 28.4559 22.2556 28.541 21.8996C28.8233 20.7236 29.1195 19.325 29.1756 17.864C29.2415 16.1292 29.08 14.4197 28.6947 12.7824C28.312 11.1563 27.6986 9.55613 26.8707 8.02554C26.4267 7.20423 25.928 6.42535 25.3779 5.69088C26.8707 6.69779 28.1769 7.99571 29.1954 9.50436C30.9607 12.1208 31.7886 15.2012 31.5894 18.4129M3.97869 20.3637C3.12303 19.2328 3.18774 18.1199 4.17132 17.0539C4.83291 16.3373 5.67274 15.7527 6.66687 15.3165C7.30477 15.0368 7.98549 14.7949 8.64391 14.5609C8.79689 14.5065 8.95 14.4521 9.10239 14.3978C9.37549 14.5251 9.6519 14.659 9.91972 14.7889C10.3412 14.9923 10.7766 15.2032 11.2159 15.3994C11.1328 17.5511 12.6257 19.5344 14.7096 20.0276C15.11 20.1224 15.5078 20.1701 15.8911 20.1701C16.9604 20.1701 17.9486 19.8042 18.8332 19.0817C20.6091 19.9281 22.3546 20.7674 24.1931 21.6516C23.8592 21.8764 23.4952 22.0806 23.0881 22.2741C21.4983 23.0305 19.7224 23.5382 17.8088 23.7835C16.8021 23.9128 15.7941 23.9784 14.8138 23.9784C14.137 23.9784 13.4569 23.9472 12.7913 23.8856C10.4329 23.6675 8.42952 23.1644 6.66614 22.3464C5.40293 21.7611 4.57431 21.1499 3.97869 20.3637M20.1361 13.6958C19.7152 12.6564 18.9949 11.8676 17.9955 11.3505C17.3127 10.9979 16.6002 10.8188 15.8766 10.8188C15.3771 10.8188 14.8679 10.9044 14.3633 11.0741C13.3639 11.4101 12.563 12.0273 11.9753 12.9129C11.4277 12.6524 10.9053 12.4039 10.3822 12.1486C10.4731 10.0373 10.8716 8.47895 11.6612 7.1233C12.2286 6.14893 12.9503 5.34552 13.8051 4.73302C14.641 4.13504 15.6351 3.69893 16.7592 3.43643C16.8054 3.42582 16.8522 3.41383 16.8991 3.40262C17.0369 3.36815 17.1676 3.33567 17.2632 3.33435C17.2744 3.33435 17.2863 3.33368 17.2975 3.33368C17.4981 3.33368 17.5614 3.36411 17.564 3.3655C20.0372 4.70783 22.0261 6.57582 23.4746 8.91645C24.5658 10.6797 25.2875 12.6359 25.6179 14.7298C25.7922 15.8329 25.8488 16.9379 25.7862 18.0145C25.7585 18.4878 25.6853 18.9683 25.6048 19.4741L20.2727 16.9114C20.6124 15.8389 20.5675 14.7597 20.1361 13.6958M34.9128 15.7501C34.6971 13.3882 34.0097 11.1278 32.8711 9.03172C31.2635 6.07204 28.9592 3.73473 26.0244 2.08482C24.3454 1.14154 22.4581 0.472633 20.4151 0.0967803C20.3214 0.0796117 20.2271 0.0609848 20.1282 0.0405019C20.0814 0.0312216 20.0339 0.0219413 19.987 0.012661L19.9236 0H16.3384L16.1984 0.0703314C16.1873 0.0762973 16.1767 0.0816004 16.1668 0.0869034C14.6087 0.42696 13.1884 1.03482 11.9443 1.89524C9.72314 3.43179 8.24481 5.58548 7.55083 8.29599C7.34171 9.11134 7.20912 9.9518 7.08048 10.7646C7.04222 11.0078 7.00264 11.2564 6.96102 11.505C6.95251 11.5083 6.94387 11.5116 6.93536 11.5143C4.9438 12.2395 3.47002 13.0753 2.29844 14.1459C1.28452 15.0719 0.619631 16.0457 0.266706 17.1216C-0.119204 18.2988 -0.0110174 19.4244 0.125535 20.2729C0.434857 22.1893 1.02533 23.9903 1.88152 25.6263C3.17719 28.1015 4.95303 30.167 7.1609 31.7646C9.08253 33.1546 11.1896 34.1284 13.4225 34.658C13.7815 34.7435 14.1443 34.8165 14.4945 34.8874C14.6549 34.9199 14.8145 34.9523 14.9741 34.9861L15.0408 35H19.9329L20.0042 34.9834C20.2139 34.9364 20.4303 34.89 20.6401 34.8456C21.1065 34.7461 21.5893 34.6434 22.0657 34.5141C25.5256 33.5736 28.4737 31.693 30.8281 28.9248C32.8705 26.5225 34.1859 23.7344 34.738 20.6381C35.0144 19.087 35.0711 17.4881 34.9128 15.7501" fill="black"/>
</g>
</svg>
