<svg width="35" height="40" viewBox="0 0 35 40" fill="none" xmlns="http://www.w3.org/2000/svg">
<path fill-rule="evenodd" clip-rule="evenodd" d="M3.5836 32.5005C3.29075 33.0147 2.98002 33.5257 2.68054 34.0201C2.61794 34.1218 2.55609 34.2243 2.49425 34.3269C2.20058 34.8106 1.76697 35.0877 1.30341 35.0877C1.06652 35.0877 0.836264 35.0186 0.620093 34.8812C0.291477 34.6731 0.0776162 34.3572 0.0173327 33.9912C-0.0392995 33.6426 0.0433388 33.2728 0.25802 32.9212C0.459884 32.5916 0.660406 32.2499 0.854148 31.9196C1.54856 30.7365 2.2669 29.513 3.23345 28.4545C4.79448 26.7443 6.61796 25.4905 8.65292 24.7288C9.34816 24.4684 9.78631 24.0287 10.1202 23.2571C10.5703 22.2153 11.0941 21.1946 11.6016 20.2082C11.7394 19.9402 11.8773 19.6713 12.0137 19.4025C12.1478 19.1382 12.2864 18.874 12.4213 18.618C12.9413 17.6285 13.4325 16.6944 13.726 15.6594C14.1544 14.1512 14.2648 12.5991 14.065 10.9132C14.0629 10.8965 14.0606 10.8836 14.0583 10.8738C14.0464 10.8684 14.027 10.8616 13.9995 10.8539C13.4532 10.6938 12.8885 10.6132 12.3199 10.6132C10.3192 10.6132 8.422 11.618 7.24606 13.3015C7.10903 13.4982 6.74382 14.0199 6.07772 14.0199C6.01953 14.0199 5.96066 14.0161 5.90112 14.0077C5.44136 13.947 5.05834 13.6637 4.87652 13.2507C4.68271 12.8079 4.74165 12.2824 5.03591 11.8458C6.05537 10.3292 7.43019 9.2198 9.12163 8.5469C10.1343 8.1445 11.2007 7.94015 12.2915 7.94015C12.6 7.94015 12.9138 7.95693 13.2305 7.98951C12.5188 6.35233 11.4585 4.94282 10.074 3.79317C9.66858 3.45593 9.26172 3.10972 8.86835 2.77407L8.58139 2.52947C8.11268 2.13078 7.88995 1.70104 7.91901 1.253C7.948 0.806476 8.22304 0.412275 8.73571 0.0820145L8.86313 0H9.62759L9.76396 0.0994047C11.5427 1.39569 12.9205 2.69813 13.9764 4.07939C15.2313 5.72279 16.0457 7.48071 16.4644 9.45514C17.1471 12.6704 16.7871 15.7551 15.3944 18.6234C15.0442 19.3448 14.6627 20.0594 14.2931 20.7497C14.0204 21.2607 13.738 21.7892 13.4727 22.3125C13.0836 23.0802 12.732 23.8396 12.4265 24.5694C11.9003 25.8255 11.0352 26.6851 9.85345 27.124C8.49495 27.6283 7.27967 28.3368 6.24009 29.2298C5.20589 30.1183 4.31236 31.2186 3.5836 32.5005" fill="black"/>
<path fill-rule="evenodd" clip-rule="evenodd" d="M34.3738 23.6529C34.1573 23.7879 33.9164 23.8596 33.6778 23.8596C33.203 23.8596 32.7578 23.5826 32.4567 23.0997C32.2447 22.7601 32.0344 22.4129 31.8309 22.0772C31.4032 21.372 30.9603 20.6418 30.4908 19.9574C29.6285 18.6991 28.5743 17.6713 27.3585 16.9021C26.1693 16.1498 24.7896 15.6218 23.2573 15.3334C22.4401 15.1792 21.7747 14.8015 21.3325 14.2414C20.8851 13.673 20.6777 12.9321 20.7334 12.0973C20.8279 10.6788 20.7045 9.33273 20.3675 8.09743C20.0184 6.81933 19.4276 5.61677 18.6126 4.52478C18.0691 3.79615 17.3869 3.14443 16.7276 2.51347C16.2617 2.06938 16.0536 1.61834 16.1086 1.1728C16.1611 0.740154 16.4538 0.368551 16.9768 0.0701238L17.0996 0H17.8779L18.0211 0.109039C20.8195 2.24411 22.5751 5.11469 23.2382 8.64148C23.4563 9.79895 23.5158 10.9847 23.4151 12.1644C23.3869 12.4949 23.4334 12.5596 23.4357 12.5627C23.4372 12.565 23.4899 12.6291 23.8244 12.6932C25.8949 13.0885 27.7526 13.8607 29.345 14.9893C30.9168 16.1025 32.2706 17.5905 33.3684 19.4119C33.559 19.7278 33.751 20.0436 33.9432 20.3596C34.2076 20.796 34.482 21.247 34.7489 21.6933C35.1917 22.4335 35.0378 23.2392 34.3738 23.6529" fill="black"/>
<path fill-rule="evenodd" clip-rule="evenodd" d="M31.331 25.1218C31.5161 25.4909 31.5506 25.8862 31.4275 26.2364C31.3119 26.5646 31.0643 26.831 30.7308 26.9864C30.5427 27.074 30.3478 27.1185 30.1498 27.1185C29.639 27.1185 29.1779 26.8167 28.9172 26.3103C28.7979 26.0786 28.6779 25.847 28.5578 25.6161C28.138 24.8063 27.7044 23.9695 27.3054 23.1288C26.4513 21.3283 25.0956 20.296 23.1596 19.9715C22.619 19.8809 22.0776 19.77 21.5547 19.6621C21.3161 19.613 21.0691 19.5625 20.8275 19.5149C20.79 19.5074 20.7541 19.5036 20.7228 19.5036C20.6211 19.5036 20.5835 19.5368 20.5469 19.6025C20.449 19.776 20.3511 19.9488 20.2524 20.1224C19.3977 21.6294 18.5894 23.0533 18.3532 24.6992C18.2507 25.4154 18.23 26.1383 18.2087 26.9028C18.2018 27.1577 18.1941 27.4204 18.1834 27.6807H18.3356C18.5412 27.6799 18.7454 27.6799 18.9495 27.6799C19.1905 27.6799 19.4305 27.6799 19.6706 27.6815C22.8682 27.6981 25.5964 28.8836 27.7809 31.2033C28.1021 31.5437 28.2627 31.9292 28.2451 32.3186C28.2297 32.6568 28.0731 32.9751 27.8031 33.2151C27.5478 33.4423 27.2464 33.5615 26.9299 33.5615C26.6531 33.5615 26.2341 33.468 25.8136 33.0212C24.9733 32.1262 24.0213 31.4485 22.986 31.0048C21.9553 30.5634 20.8061 30.34 19.5712 30.34H19.4864C19.312 30.3415 19.1376 30.3423 18.9595 30.3423C18.8884 30.3423 18.8165 30.3423 18.7439 30.3415C18.8058 30.5226 18.8685 30.6978 18.9373 30.8682C19.4864 32.2371 20.3266 33.489 21.4353 34.5893C21.9469 35.0956 22.4584 35.602 22.9707 36.1083C23.457 36.589 23.9433 37.0697 24.4288 37.5512C24.8525 37.9708 25.0429 38.3956 24.9961 38.8137C24.9488 39.2302 24.6697 39.6015 24.1666 39.9177L24.035 39.9999H23.2299L23.0815 39.88C23.0235 39.8324 22.9623 39.7856 22.8965 39.7358C22.7413 39.6166 22.58 39.4936 22.4285 39.3404C22.034 38.9404 21.6181 38.5412 21.2159 38.1549C20.2663 37.2425 19.2845 36.2993 18.4594 35.2405C16.7268 33.0197 15.7198 30.6554 15.4652 28.2127C15.2129 25.7972 15.6938 23.2707 16.8951 20.7042C17.1878 20.0771 17.5289 19.4704 17.8585 18.8833C17.9479 18.7248 18.0366 18.5672 18.1245 18.4086C18.6766 17.4125 19.6232 16.842 20.7211 16.842C20.9284 16.842 21.1409 16.8624 21.3536 16.9024C21.511 16.9326 21.6678 16.962 21.8246 16.9915C22.6579 17.1484 23.5197 17.3107 24.3639 17.5121C26.5882 18.0426 28.2749 19.3188 29.376 21.3056C29.9051 22.2602 30.3975 23.2488 30.8731 24.205C31.0252 24.5105 31.1773 24.8169 31.331 25.1218" fill="black"/>
<path fill-rule="evenodd" clip-rule="evenodd" d="M16.9425 37.6145C17.3641 38.0276 17.5479 38.4495 17.4894 38.8686C17.4302 39.2868 17.1369 39.6452 16.618 39.932L16.4958 39.9999H15.7028L15.5531 39.8743C12.6643 37.449 11.0243 35.1891 10.235 32.5457L10.2258 32.5154C10.1962 32.4156 10.1681 32.321 10.1332 32.2546C10.0929 32.1769 10.0246 32.0845 9.92731 32.0845C9.87497 32.0845 9.81116 32.1068 9.74348 32.1467C8.9079 32.6499 8.27673 33.3342 7.81405 34.238C7.70322 34.4545 7.59224 34.6718 7.48217 34.8883C7.03164 35.7721 6.56599 36.6848 6.08067 37.5731C5.88537 37.9301 5.52387 38.2352 5.15849 38.3505C5.03315 38.3904 4.90402 38.4104 4.77481 38.4104C4.39051 38.4104 4.02893 38.2337 3.78358 37.9264C3.52683 37.6041 3.43863 37.194 3.54278 36.7994C3.58524 36.6382 3.65292 36.4963 3.70761 36.39L3.72205 36.3604C4.28341 35.2667 4.86292 34.1361 5.43803 33.0253C6.03965 31.865 6.90782 30.8962 8.09442 30.0641C8.64515 29.6777 9.26651 29.4736 9.89237 29.4736C11.2241 29.4736 12.4144 30.3929 12.7866 31.7084C13.2682 33.4073 14.2062 34.946 15.5752 36.2821C15.7537 36.4557 15.9313 36.6286 16.1091 36.8024C16.3871 37.0728 16.6652 37.3432 16.9425 37.6145" fill="black"/>
</svg>
