<svg width="141" height="140" viewBox="0 0 141 140" fill="none" xmlns="http://www.w3.org/2000/svg">
<mask id="mask0_0_256" style="mask-type:luminance" maskUnits="userSpaceOnUse" x="0" y="0" width="141" height="140">
<path fill-rule="evenodd" clip-rule="evenodd" d="M0 0H141V140H0V0Z" fill="white"/>
</mask>
<g mask="url(#mask0_0_256)">
<path fill-rule="evenodd" clip-rule="evenodd" d="M95.8225 31.8132C93.2154 29.6232 90.73 27.5615 88.2785 25.4605C87.5278 24.8171 87.4767 24.1003 88.2955 23.4801C89.4992 22.5681 90.8339 21.82 92.1507 21.0678C92.9052 20.637 93.375 20.0913 93.2668 19.2115C93.1291 18.0891 91.9504 17.3446 90.9291 17.873C89.2919 18.7197 87.5961 19.5617 86.1912 20.7255C83.4823 22.9693 83.605 26.0536 86.2905 28.3306C88.2308 29.9757 90.1873 31.6018 92.1347 33.2389C92.381 33.4461 92.6155 33.6673 92.9158 33.9359C91.5203 35.0152 90.1933 36.0337 88.8754 37.0642C88.1684 37.6169 87.4031 38.1216 86.7981 38.7719C86.0934 39.5293 85.3015 39.6356 84.3631 39.5168C82.2274 39.247 80.2409 38.5279 78.2959 37.6418C73.5826 35.4949 68.8038 33.4834 64.1542 31.2082C60.1275 29.2378 56.2621 31.0827 55.1938 35.6259C53.6136 42.3458 52.0741 49.0751 50.4856 55.793C48.2991 65.0411 46.0887 74.2835 43.8612 83.5219C43.7589 83.9465 43.4519 84.3706 43.1324 84.6866C40.9845 86.8091 38.7921 88.8871 36.6549 91.0202C36.2972 91.3769 36.0104 91.9074 35.9173 92.4002C35.7763 93.1455 36.1967 93.745 36.8748 94.0674C37.6776 94.4492 38.3686 94.2029 38.9849 93.5848C40.8855 91.6796 42.7152 89.6919 44.7306 87.9148C54.6621 79.1568 66.2558 74.5824 79.5402 74.401C90.3988 74.253 100.688 76.6625 110.458 81.3507C111.258 81.7345 112.018 81.8048 112.704 81.1604C113.267 80.6322 113.438 79.9255 113.063 79.2815C112.798 78.8278 112.313 78.4266 111.833 78.1852C107.214 75.8568 102.347 74.1993 97.3306 72.9602C96.8695 72.8464 96.4094 72.7291 95.6991 72.5506C96.8884 71.5872 97.8842 70.6974 98.9622 69.9209C103.842 66.4067 109.377 64.4491 115.218 63.2885C123.524 61.6387 131.886 61.6473 140.274 62.5368C140.794 62.5921 141.046 62.7605 140.985 63.304C140.959 63.5404 140.98 63.7819 140.98 64.021C140.98 88.2684 140.974 112.516 141 136.763C141.001 137.633 140.753 138 139.905 138.224C127.682 141.46 115.905 140.291 104.64 134.574C102.008 133.238 99.546 131.555 97.0788 129.923C96.0749 129.259 95.2814 129.163 94.2027 129.738C83.1623 135.628 71.3943 138.864 58.8577 139.143C41.9106 139.521 27.1577 133.839 14.3213 122.942C9.2805 118.663 4.81937 113.837 0.834198 108.575C0.415956 108.022 0.13491 107.247 0.0869004 106.554C-0.220218 102.139 0.320656 97.7816 1.17548 93.4582C2.98906 84.284 6.21435 75.5786 10.1015 67.1071C15.2499 55.8867 21.2051 45.0968 28.4029 35.06C39.0821 20.169 53.2421 9.83567 70.6082 3.90116C76.1234 2.01671 81.7883 0.763748 87.5729 0.0385973C90.2807 -0.300835 93.2911 1.63798 93.8765 4.2998C95.306 10.7982 97.5276 17.0488 99.6933 23.3202C100.406 25.3844 100.151 27.3887 98.7757 29.0828C97.9453 30.1058 96.8299 30.8988 95.8225 31.8132" fill="black"/>
</g>
</svg>
